<?xml version="1.0" encoding="utf-8"?>
<!-- Generator: Adobe Illustrator 16.0.5, SVG Export Plug-In . SVG Version: 6.00 Build 0)  -->
<!DOCTYPE svg PUBLIC "-//W3C//DTD SVG 1.1//EN" "http://www.w3.org/Graphics/SVG/1.1/DTD/svg11.dtd">
<svg version="1.1" id="Layer_1" xmlns="http://www.w3.org/2000/svg" xmlns:xlink="http://www.w3.org/1999/xlink" x="0px" y="0px"
	 width="100px" height="100px" viewBox="0 0 100 100" enable-background="new 0 0 100 100" xml:space="preserve">
<g>
	<rect x="63.938" y="44.826" width="3.125" height="8.924"/>
	<rect x="68.688" y="44.826" width="3.125" height="8.924"/>
	<rect x="73.438" y="44.826" width="3.125" height="8.924"/>
	<rect x="78.188" y="44.826" width="3.125" height="8.924"/>
	<rect x="82.938" y="44.826" width="3.125" height="8.924"/>
	<path d="M86.062,42.859c0,0,2.771-4.27,1.771-6.433c-1.027-2.223-3.562,2.312-7.75,2.062S72.5,33.151,67.75,34.32
		c-4.654,1.146-5.375,4.564-3.812,8.539H86.062z"/>
	<path d="M87,55.439H63.275l-5.192-2.019L9.964,55.444c-1.102,0.075-1.934,1.03-1.858,2.132c0.075,1.102,1.03,1.935,2.132,1.858
		l50.487,0.005H87c1.104,0,2-0.896,2-2S88.104,55.439,87,55.439z"/>
</g>
</svg>
