<?xml version="1.0" encoding="utf-8"?>
<!-- Generator: Adobe Illustrator 16.0.5, SVG Export Plug-In . SVG Version: 6.00 Build 0)  -->
<!DOCTYPE svg PUBLIC "-//W3C//DTD SVG 1.1//EN" "http://www.w3.org/Graphics/SVG/1.1/DTD/svg11.dtd">
<svg version="1.1" id="Layer_1" xmlns="http://www.w3.org/2000/svg" xmlns:xlink="http://www.w3.org/1999/xlink" x="0px" y="0px"
	 width="100px" height="100px" viewBox="0 0 100 100" enable-background="new 0 0 100 100" xml:space="preserve">
<g>
	<path d="M50,16.496c-18.502,0.001-33.499,14.998-33.5,33.5h4c0.001-8.152,3.299-15.515,8.641-20.86
		c5.345-5.341,12.707-8.639,20.859-8.64c8.152,0.001,15.515,3.299,20.859,8.64c5.342,5.345,8.64,12.708,8.641,20.86h4
		C83.499,31.494,68.502,16.498,50,16.496z"/>
	<path d="M76.123,56.524L76.123,56.524c-0.228-0.137-0.482-0.199-0.737-0.2c-0.198,0.001-0.397,0.039-0.587,0.123l0.002-0.001
		c-2.907,1.274-6.101,2.375-9.517,3.214l-0.014,0.004c-3.211,0.788-6.619,1.349-10.142,1.628c-1.702,0.134-3.426,0.2-5.173,0.2
		c-1.75,0-3.474-0.066-5.174-0.2c-3.526-0.279-6.934-0.84-10.144-1.628c-3.42-0.84-6.619-1.941-9.531-3.218
		c-0.188-0.083-0.387-0.121-0.584-0.122c-0.254,0.001-0.509,0.064-0.736,0.2l-0.002,0.001h0.001c-0.336,0.2-0.576,0.558-0.576,0.968
		l0.025,0.229l0-0.002c0.546,2.474,1.092,4.947,1.637,7.42c0.494,2.239,0.988,4.479,1.483,6.718l0-0.003
		c0.07,0.324,0.285,0.587,0.559,0.748l0.003,0.002l-0.004-0.002c2.74,1.623,5.682,2.979,8.783,4.021l0.004,0.009l0.197,0.065
		c2.982,0.986,6.11,1.672,9.334,2.012l0.026,0.003h0.01c1.541,0.164,3.103,0.253,4.689,0.253c1.582,0,3.145-0.089,4.688-0.253h0.01
		l0.026-0.003c3.222-0.34,6.35-1.025,9.331-2.012l0.063-0.021l0.008-0.005c3.151-1.048,6.136-2.422,8.915-4.068h-0.001
		c0.273-0.161,0.488-0.422,0.56-0.747v0.001c0.494-2.238,0.988-4.478,1.481-6.717c0.546-2.473,1.092-4.946,1.639-7.419v-0.003
		l0.001-0.001l0.023-0.221C76.7,57.088,76.463,56.727,76.123,56.524z M46.651,76.475c-0.083-1.734-0.167-3.47-0.249-5.203
		c1.18,0.075,2.364,0.126,3.552,0.126c1.188,0,2.372-0.051,3.553-0.126c-0.082,1.734-0.166,3.469-0.248,5.203
		c-1.097,0.092-2.195,0.153-3.304,0.153C48.847,76.628,47.748,76.566,46.651,76.475z M53.621,68.923
		c-1.223,0.084-2.445,0.138-3.666,0.138c-1.222,0-2.445-0.054-3.666-0.138c-0.083-1.74-0.167-3.48-0.25-5.221
		c1.293,0.075,2.595,0.127,3.917,0.127c1.319,0,2.622-0.052,3.915-0.127C53.787,65.444,53.704,67.184,53.621,68.923z M72.58,64.129
		c-2.084,0.976-4.242,1.798-6.448,2.482c0.229-1.643,0.459-3.284,0.688-4.924c2.378-0.62,4.64-1.359,6.784-2.192
		C73.264,61.04,72.924,62.585,72.58,64.129z M71.086,70.907c-1.894,1.091-3.885,2.037-5.953,2.839
		c0.213-1.518,0.426-3.035,0.638-4.556c2.104-0.599,4.165-1.329,6.176-2.177C71.659,68.312,71.373,69.61,71.086,70.907z
		 M56.51,63.501c2.602-0.251,5.132-0.649,7.574-1.174c-0.236,1.688-0.473,3.378-0.709,5.067c-2.336,0.589-4.713,1.014-7.114,1.289
		C56.344,66.955,56.427,65.228,56.51,63.501z M62.35,74.729c-2.086,0.646-4.242,1.129-6.448,1.445
		c0.082-1.707,0.164-3.413,0.246-5.121c2.316-0.247,4.613-0.636,6.878-1.16C62.8,71.505,62.574,73.117,62.35,74.729z M43.761,71.053
		c0.083,1.708,0.164,3.413,0.245,5.121c-2.207-0.316-4.361-0.799-6.445-1.445c-0.226-1.612-0.451-3.224-0.677-4.835
		C39.148,70.417,41.444,70.806,43.761,71.053z M43.398,63.501c0.083,1.727,0.166,3.454,0.249,5.182
		c-2.4-0.274-4.778-0.7-7.113-1.288c-0.236-1.689-0.473-3.378-0.709-5.066C38.266,62.852,40.796,63.25,43.398,63.501z
		 M28.822,70.907c-0.286-1.297-0.572-2.595-0.859-3.894c2.01,0.848,4.071,1.578,6.175,2.178c0.212,1.52,0.425,3.037,0.637,4.555
		C32.707,72.943,30.714,71.998,28.822,70.907z M33.087,61.688c0.23,1.641,0.46,3.282,0.69,4.924
		c-2.208-0.685-4.367-1.507-6.452-2.483c-0.34-1.545-0.681-3.089-1.022-4.634C28.447,60.327,30.711,61.067,33.087,61.688z"/>
	<polygon points="25.106,56.446 25.107,56.446 25.109,56.447 	"/>
	<path d="M45.582,51.016c0.677-1.169,1.098-2.789,1.098-4.582c0-3.559-1.654-6.444-3.695-6.444c-2.04,0-3.694,2.886-3.694,6.444
		c0,1.255,0.209,2.422,0.564,3.413c0.644-0.333,1.363-0.538,2.137-0.538C43.442,49.309,44.722,49.981,45.582,51.016z"/>
	<path d="M57.352,49.309c0.775,0,1.494,0.206,2.138,0.538c0.355-0.991,0.564-2.158,0.564-3.413c0-3.559-1.654-6.444-3.694-6.444
		c-2.041,0-3.695,2.886-3.695,6.444c0,1.792,0.421,3.413,1.098,4.582C54.622,49.981,55.902,49.309,57.352,49.309z"/>
</g>
</svg>
