<?xml version="1.0" encoding="utf-8"?>
<!-- Generator: Adobe Illustrator 16.0.5, SVG Export Plug-In . SVG Version: 6.00 Build 0)  -->
<!DOCTYPE svg PUBLIC "-//W3C//DTD SVG 1.1//EN" "http://www.w3.org/Graphics/SVG/1.1/DTD/svg11.dtd">
<svg version="1.1" id="Layer_1" xmlns="http://www.w3.org/2000/svg" xmlns:xlink="http://www.w3.org/1999/xlink" x="0px" y="0px"
	 width="100px" height="100px" viewBox="0 0 100 100" enable-background="new 0 0 100 100" xml:space="preserve">
<path d="M43,16.826c-18.502,0.001-33.499,14.998-33.5,33.5h4c0.001-8.152,3.299-15.514,8.641-20.859
	c5.345-5.341,12.707-8.639,20.859-8.64c8.152,0.001,15.515,3.299,20.859,8.64c5.342,5.345,8.64,12.707,8.641,20.859h4
	C76.499,31.823,61.502,16.827,43,16.826z"/>
<path d="M16.669,71.037c-4.49-5.7-7.168-12.894-7.169-20.712h4c0.001,6.819,2.308,13.084,6.189,18.08L16.669,71.037z"/>
<path d="M60.811,51.424v0.002c-0.184-0.111-0.387-0.16-0.59-0.16c-0.16,0-0.318,0.031-0.471,0.098l0.002-0.002
	c-2.326,1.021-4.881,1.9-7.612,2.572l-0.012,0.004c-2.568,0.629-5.295,1.077-8.113,1.301c-1.361,0.108-2.74,0.161-4.138,0.161
	c-1.399,0-2.779-0.053-4.14-0.161c-2.82-0.224-5.547-0.672-8.115-1.301c-2.737-0.672-5.294-1.554-7.624-2.576
	c-0.152-0.064-0.311-0.096-0.468-0.096c-0.204,0-0.407,0.051-0.589,0.158l-0.001,0.002h0c-0.269,0.16-0.461,0.445-0.461,0.773
	l0.021,0.184v-0.002c0.436,1.979,0.874,3.958,1.309,5.936c0.396,1.791,0.791,3.582,1.187,5.375l-0.001-0.004
	c0.056,0.26,0.228,0.471,0.447,0.598l0.003,0.002l-0.003-0.002c2.192,1.299,4.545,2.385,7.027,3.219l0.003,0.006l0.158,0.053
	c2.386,0.789,4.889,1.338,7.467,1.609l0.021,0.002h0.009c1.233,0.131,2.481,0.203,3.751,0.203c1.266,0,2.516-0.072,3.75-0.203h0.008
	l0.021-0.002c2.578-0.271,5.08-0.82,7.465-1.609l0.051-0.018l0.007-0.004c2.52-0.838,4.908-1.938,7.131-3.256l0,0
	c0.219-0.127,0.391-0.336,0.447-0.596l0,0c0.395-1.791,0.791-3.582,1.186-5.373c0.436-1.978,0.873-3.956,1.311-5.934v-0.004l0,0
	l0.02-0.176C61.271,51.876,61.082,51.587,60.811,51.424z M37.233,67.385c-0.066-1.389-0.133-2.777-0.199-4.162
	c0.945,0.059,1.892,0.1,2.842,0.1s1.897-0.041,2.842-0.1c-0.065,1.387-0.133,2.773-0.198,4.162
	c-0.877,0.072-1.756,0.121-2.643,0.121C38.989,67.506,38.11,67.457,37.233,67.385z M42.809,61.342
	c-0.978,0.068-1.956,0.111-2.933,0.111c-0.978,0-1.956-0.043-2.933-0.111c-0.067-1.393-0.134-2.783-0.2-4.175
	c1.034,0.061,2.077,0.102,3.134,0.102c1.056,0,2.098-0.041,3.132-0.102C42.941,58.559,42.875,59.951,42.809,61.342z M57.975,57.509
	c-1.666,0.778-3.393,1.437-5.157,1.985c0.184-1.314,0.367-2.628,0.551-3.938c1.901-0.497,3.712-1.087,5.427-1.755
	C58.521,55.036,58.25,56.272,57.975,57.509z M56.779,62.93c-1.514,0.873-3.107,1.629-4.761,2.271c0.17-1.213,0.34-2.428,0.51-3.645
	c1.683-0.479,3.331-1.062,4.94-1.74C57.238,60.854,57.01,61.893,56.779,62.93z M45.12,57.005c2.081-0.199,4.105-0.518,6.059-0.938
	c-0.188,1.352-0.378,2.703-0.566,4.055c-1.869,0.469-3.771,0.811-5.691,1.031C44.987,59.77,45.054,58.387,45.12,57.005z
	 M49.792,65.988c-1.669,0.516-3.395,0.902-5.159,1.156c0.065-1.367,0.132-2.732,0.197-4.098c1.853-0.199,3.69-0.51,5.502-0.928
	C50.151,63.408,49.972,64.699,49.792,65.988z M34.92,63.047c0.066,1.365,0.131,2.73,0.196,4.098
	c-1.766-0.254-3.489-0.641-5.156-1.156c-0.18-1.291-0.36-2.58-0.541-3.869C31.23,62.537,33.067,62.848,34.92,63.047z M34.631,57.005
	c0.066,1.382,0.133,2.765,0.198,4.146c-1.919-0.219-3.822-0.561-5.69-1.029c-0.189-1.352-0.378-2.703-0.567-4.054
	C30.524,56.487,32.549,56.806,34.631,57.005z M22.97,62.93c-0.229-1.037-0.458-2.074-0.688-3.113
	c1.608,0.678,3.256,1.262,4.94,1.742c0.17,1.215,0.339,2.43,0.51,3.643C26.078,64.559,24.484,63.803,22.97,62.93z M26.381,55.556
	c0.185,1.312,0.368,2.624,0.552,3.938c-1.767-0.549-3.494-1.207-5.162-1.987c-0.272-1.236-0.544-2.471-0.818-3.706
	C22.67,54.467,24.48,55.059,26.381,55.556z"/>
<polygon points="26.519,53.219 26.52,53.219 26.521,53.221 "/>
<path d="M40.217,50.326c0.677-1.168,1.098-2.789,1.098-4.581c0-3.559-1.654-6.444-3.695-6.444c-2.04,0-3.694,2.886-3.694,6.444
	c0,1.255,0.209,2.422,0.564,3.413c0.644-0.333,1.362-0.539,2.138-0.539C38.077,48.619,39.357,49.292,40.217,50.326z"/>
<path d="M51.986,48.619c0.775,0,1.494,0.206,2.139,0.539c0.355-0.991,0.564-2.158,0.564-3.413c0-3.559-1.654-6.444-3.695-6.444
	c-2.041,0-3.695,2.886-3.695,6.444c0,1.792,0.421,3.413,1.098,4.581C49.257,49.292,50.537,48.619,51.986,48.619z"/>
<g>
	<rect x="65.438" y="63.975" width="3.125" height="8.924"/>
	<rect x="70.188" y="63.975" width="3.125" height="8.924"/>
	<rect x="74.938" y="63.975" width="3.124" height="8.924"/>
	<rect x="79.687" y="63.975" width="3.125" height="8.924"/>
	<rect x="84.437" y="63.975" width="3.125" height="8.924"/>
	<path d="M87.562,62.008c0,0,2.771-4.27,1.771-6.434c-1.027-2.223-3.562,2.312-7.75,2.062C77.396,57.387,74,52.3,69.25,53.469
		c-4.654,1.146-5.375,4.564-3.812,8.539H87.562z"/>
	<path d="M88.499,74.588H64.775l-5.192-2.019l-48.119,2.023c-1.102,0.075-1.934,1.03-1.858,2.132
		c0.075,1.102,1.03,1.935,2.132,1.858l50.487,0.005h26.274c1.105,0,2-0.896,2-2S89.604,74.588,88.499,74.588z"/>
</g>
</svg>
