<?xml version="1.0" encoding="utf-8"?>
<!-- Generator: Adobe Illustrator 16.0.5, SVG Export Plug-In . SVG Version: 6.00 Build 0)  -->
<!DOCTYPE svg PUBLIC "-//W3C//DTD SVG 1.1//EN" "http://www.w3.org/Graphics/SVG/1.1/DTD/svg11.dtd">
<svg version="1.1" id="Layer_1" xmlns="http://www.w3.org/2000/svg" xmlns:xlink="http://www.w3.org/1999/xlink" x="0px" y="0px"
	 width="100px" height="100px" viewBox="0 0 100 100" enable-background="new 0 0 100 100" xml:space="preserve">
<g>
	<path d="M69.671,66.519l-4.24-13.74c-0.205-1.566-1.18-3.008-2.72-3.729H62.71l-0.056-0.025l-0.209-0.098l-11.977,0.236L52.595,40
		l5.946-1.444L61.311,46l0.021,0.045c0.72,1.464,2.198,2.344,3.762,2.344c0.516,0,1.04-0.096,1.545-0.298
		c1.631-0.655,2.626-2.221,2.625-3.878c0-0.519-0.098-1.047-0.302-1.554l-0.016-0.039l-5.28-10.522l-0.02-0.032
		c-0.041-0.066-0.36-0.592-1.03-1.135c-0.663-0.541-1.717-1.096-3.098-1.093c-0.243,0-0.494,0.017-0.754,0.052
		c-0.547,0.075-0.93,0.58-0.854,1.127c0.075,0.547,0.579,0.93,1.127,0.854c0.17-0.023,0.33-0.034,0.48-0.034
		c0.844,0.002,1.426,0.318,1.841,0.649c0.205,0.165,0.358,0.333,0.455,0.452l0.103,0.135l0.004,0.006l5.191,10.343
		c0.102,0.261,0.151,0.527,0.151,0.79c-0.001,0.863-0.518,1.683-1.369,2.022c-0.265,0.105-0.533,0.155-0.801,0.155
		c-0.806,0.001-1.581-0.458-1.953-1.208l-3.346-8.987l-8.87,2.154L47.94,51.213l14.04-0.276c0.852,0.451,1.391,1.279,1.483,2.184
		l0.011,0.1l4.22,13.674l0.009,0.178c0.001,1.303-0.994,2.428-2.322,2.559h0.002l-0.253,0.014c-1.244,0.002-2.336-0.92-2.54-2.158
		l-0.005-0.027L59.66,54.379l-13.429,0.888l2.716,12.793l0.028,0.188c0.017,0.119,0.026,0.238,0.026,0.359
		c0,0.246-0.04,0.49-0.104,0.717l-7.472,15.27l-0.023,0.072c-0.344,1.098-1.362,1.801-2.455,1.803c-0.254,0-0.513-0.039-0.771-0.119
		h0.001c-1.096-0.344-1.8-1.367-1.8-2.463c0-0.178,0.029-0.357,0.067-0.537l8.539-14.785l-5.753-15.047
		c-0.172-0.629-0.305-1.738-0.301-2.556c0-0.177,0.006-0.337,0.017-0.476l2.278-13.46l-9.487-6.891
		c-0.465-0.365-0.718-0.71-0.869-1.023c-0.15-0.315-0.2-0.608-0.2-0.882c-0.001-0.321,0.076-0.614,0.146-0.799
		c0.061-0.166,0.118-0.362,0.206-0.667c0.297-1.042,0.849-3.12,1.394-5.121c0.273-1,0.543-1.978,0.778-2.789
		c0.232-0.807,0.437-1.465,0.547-1.753c0.258-0.684,0.607-1.296,0.992-1.686c0.395-0.391,0.756-0.57,1.262-0.578l0.162,0.007h0
		c0.451,0.036,0.907,0.21,1.21,0.494c0.301,0.289,0.521,0.662,0.531,1.396c0,0.45-0.101,1.036-0.375,1.766
		c-0.652,1.738-1.438,3.821-2.06,5.47c-0.623,1.649-1.081,2.86-1.082,2.863L34.07,27.65l7.333,3.985
		c0.485,0.264,1.092,0.084,1.356-0.401c0.264-0.485,0.084-1.092-0.401-1.356l-5.8-3.152c0.578-1.53,1.856-4.913,2.834-7.521
		c0.34-0.906,0.502-1.724,0.502-2.469c0.009-1.209-0.465-2.226-1.177-2.868c-0.708-0.647-1.58-0.945-2.396-1.015h0
		c-0.111-0.009-0.222-0.014-0.331-0.014c-1.098-0.007-2.039,0.5-2.691,1.179c-0.663,0.681-1.106,1.523-1.432,2.375
		c-0.18,0.475-0.418,1.272-0.704,2.271c-0.426,1.492-0.937,3.391-1.368,4.987c-0.215,0.798-0.411,1.52-0.564,2.072
		c-0.077,0.276-0.143,0.511-0.195,0.688c-0.05,0.174-0.093,0.307-0.098,0.317c-0.136,0.363-0.273,0.878-0.274,1.503
		c-0.001,0.527,0.104,1.135,0.396,1.745c0.291,0.61,0.767,1.212,1.452,1.744l0.013,0.01l8.517,6.187l-2.088,12.336l-0.003,0.044
		c-0.017,0.212-0.025,0.435-0.025,0.666c0.003,1.024,0.136,2.218,0.379,3.116l0.013,0.047l5.454,14.264l-8.223,14.238l-0.034,0.135
		c-0.095,0.373-0.141,0.752-0.141,1.125c0,1.945,1.244,3.752,3.199,4.371h0.001c0.453,0.143,0.916,0.211,1.37,0.211
		c1.898,0,3.648-1.195,4.306-3.064h0.001l7.518-15.361l0.023-0.074c0.133-0.43,0.207-0.889,0.207-1.361
		c0-0.215-0.015-0.432-0.047-0.65l0-0.006l-0.032-0.213l-0.004-0.031l-2.25-10.596l9.415-0.623l2.546,11.381h0.003
		c0.394,2.178,2.286,3.771,4.499,3.775c0.148,0,0.298-0.008,0.448-0.023h0.002c2.359-0.238,4.122-2.223,4.123-4.549
		c0-0.15-0.008-0.301-0.022-0.453L69.671,66.519z"/>
	<path d="M50.48,33.782c4.401,0,7.968-3.567,7.969-7.969c-0.001-4.401-3.567-7.968-7.969-7.969c-4.401,0-7.968,3.567-7.969,7.969
		C42.512,30.214,46.079,33.781,50.48,33.782z M46.26,21.592c1.083-1.082,2.569-1.748,4.221-1.748c1.651,0,3.137,0.667,4.221,1.748
		c1.081,1.083,1.747,2.569,1.748,4.221c-0.001,1.651-0.667,3.137-1.748,4.221c-1.084,1.082-2.569,1.748-4.221,1.748
		c-1.651,0-3.137-0.667-4.221-1.748c-1.082-1.083-1.748-2.569-1.748-4.221C44.512,24.162,45.178,22.676,46.26,21.592z"/>
	<path d="M72.5,60.829c-0.17-0.525-0.733-0.814-1.259-0.645s-0.813,0.734-0.644,1.26l1.833,5.666
		c0.17,0.525,0.733,0.814,1.259,0.645s0.813-0.734,0.644-1.26L72.5,60.829z"/>
	<path d="M77.641,64.788l-1.281-3.959c-0.17-0.525-0.733-0.814-1.259-0.645s-0.813,0.734-0.644,1.26l1.281,3.959
		c0.17,0.525,0.733,0.814,1.259,0.645S77.811,65.313,77.641,64.788z"/>
	<path d="M29.772,12.61c-0.525-0.171-1.089,0.115-1.261,0.641l-1.848,5.663c-0.171,0.525,0.115,1.089,0.641,1.261
		c0.525,0.171,1.089-0.115,1.261-0.641l1.848-5.663C30.584,13.346,30.298,12.781,29.772,12.61z"/>
	<path d="M26.577,11.583c-0.525-0.171-1.089,0.116-1.261,0.641l-1.291,3.957c-0.171,0.525,0.116,1.089,0.641,1.261
		s1.089-0.116,1.261-0.641l1.291-3.957C27.389,12.318,27.102,11.754,26.577,11.583z"/>
</g>
</svg>
