<?xml version="1.0" encoding="utf-8"?>
<!-- Generator: Adobe Illustrator 16.0.5, SVG Export Plug-In . SVG Version: 6.00 Build 0)  -->
<!DOCTYPE svg PUBLIC "-//W3C//DTD SVG 1.1//EN" "http://www.w3.org/Graphics/SVG/1.1/DTD/svg11.dtd">
<svg version="1.1" id="Layer_1" xmlns="http://www.w3.org/2000/svg" xmlns:xlink="http://www.w3.org/1999/xlink" x="0px" y="0px"
	 width="100px" height="100px" viewBox="0 0 100 100" enable-background="new 0 0 100 100" xml:space="preserve">
<g>
	<path d="M55.688,32.528c-0.191,0.051-0.345,0.176-0.437,0.336c-0.092,0.16-0.123,0.354-0.072,0.546l4.434,16.545l4.689,17.497
		c0.051,0.191,3.93,0.533,3.93,0.533s3.045-2.197,2.994-2.389L66.537,48.1l-4.434-16.545c-0.051-0.191-0.176-0.344-0.336-0.436
		s-0.354-0.124-0.546-0.073l-2.767,0.741L55.688,32.528z"/>
	<path d="M50.458,33.93c-0.191,0.051-0.344,0.176-0.437,0.335c-0.092,0.16-0.124,0.354-0.072,0.546l4.433,16.545l4.433,16.546
		c0.051,0.191,2.198,0.996,2.198,0.996s1.313-1.732,1.263-1.924l-4.433-16.545L53.41,33.884c-0.051-0.191-0.176-0.344-0.336-0.437
		c-0.16-0.092-0.354-0.124-0.546-0.073l-1.035,0.277L50.458,33.93z"/>
	<path d="M64.384,30.198c-0.191,0.051-0.345,0.176-0.437,0.336s-0.123,0.355-0.072,0.546l4.433,16.545L72.74,64.17
		c0.051,0.191,2.198,0.998,2.198,0.998s1.313-1.734,1.263-1.926l-4.433-16.544l-4.433-16.545c-0.051-0.191-0.176-0.344-0.336-0.436
		s-0.354-0.124-0.546-0.073l-1.035,0.277L64.384,30.198z"/>
	<path d="M64.069,17.961c-0.516-1.92-1.264-2.353-3.185-1.838l-12.364,3.313c-1.921,0.514-2.354,1.263-1.838,3.184l2.433,9.08
		l17.387-4.658L64.069,17.961z"/>
	<path d="M63.288,71.504l6.436,6.6c0.797,0.629,1.756,0.371,2.13-0.57l2.274-8.934l0.044-0.143l-10.991,2.945L63.288,71.504z"/>
	<path d="M22.357,77.793c2.319-2.314,5.155-3.467,7.988-3.471c2.753,0.006,5.532,1.078,7.934,3.471
		c1.637,1.637,3.308,2.904,5.046,3.777c1.735,0.871,3.549,1.336,5.369,1.334c1.85,0.002,3.677-0.477,5.411-1.355
		c1.737-0.879,3.393-2.146,5.003-3.756c0.781-0.781,0.781-2.047,0-2.828s-2.047-0.781-2.828,0c-1.382,1.383-2.719,2.379-3.979,3.014
		c-1.266,0.637-2.441,0.924-3.607,0.926c-1.147-0.002-2.313-0.279-3.576-0.91c-1.26-0.631-2.606-1.625-4.01-3.029
		c-3.081-3.092-6.938-4.648-10.762-4.643c-3.937-0.002-7.81,1.629-10.816,4.643c-0.781,0.781-0.781,2.047,0,2.828
		C20.31,78.574,21.577,78.574,22.357,77.793z"/>
</g>
</svg>
