<?xml version="1.0" encoding="utf-8"?>
<!-- Generator: Adobe Illustrator 16.0.5, SVG Export Plug-In . SVG Version: 6.00 Build 0)  -->
<!DOCTYPE svg PUBLIC "-//W3C//DTD SVG 1.1//EN" "http://www.w3.org/Graphics/SVG/1.1/DTD/svg11.dtd">
<svg version="1.1" id="Layer_1" xmlns="http://www.w3.org/2000/svg" xmlns:xlink="http://www.w3.org/1999/xlink" x="0px" y="0px"
	 width="100px" height="100px" viewBox="0 0 100 100" enable-background="new 0 0 100 100" xml:space="preserve">
<g>
	<polygon points="73.43,46.792 65.828,54.393 73.43,61.993 76.258,59.165 71.484,54.393 76.258,49.62 	"/>
	<polygon points="49.742,49.62 54.516,54.393 49.742,59.165 52.57,61.993 60.172,54.393 52.57,46.792 	"/>
	<polyline points="71,65.872 55,65.872 55,69.872 71,69.872 	"/>
	<path d="M25.382,65.162c5.189,11.778,16.971,19.997,30.667,19.999c18.502-0.001,33.499-14.998,33.5-33.5
		c-0.001-18.502-14.998-33.499-33.5-33.5c-5.721,0-11.121,1.438-15.835,3.973l1.894,3.523c4.152-2.231,8.892-3.496,13.942-3.496
		c8.152,0.001,15.515,3.299,20.859,8.64c5.342,5.345,8.64,12.708,8.641,20.86c-0.001,8.152-3.299,15.515-8.641,20.859
		c-5.345,5.342-12.707,8.64-20.859,8.641c-12.063,0.002-22.432-7.24-27.007-17.612L25.382,65.162z"/>
	<polygon points="44.154,35.084 41.525,37.436 35.072,29.312 34.576,40.986 18.938,36.996 29.811,47.921 19.178,58.689 
		31.701,55.832 32.098,59.559 6.504,67.708 20.803,47.375 7.818,30.271 29.422,32.865 31.945,14.838 	"/>
</g>
</svg>
