<?xml version="1.0" encoding="utf-8"?>
<!-- Generator: Adobe Illustrator 16.0.5, SVG Export Plug-In . SVG Version: 6.00 Build 0)  -->
<!DOCTYPE svg PUBLIC "-//W3C//DTD SVG 1.1//EN" "http://www.w3.org/Graphics/SVG/1.1/DTD/svg11.dtd">
<svg version="1.1" id="Layer_1" xmlns="http://www.w3.org/2000/svg" xmlns:xlink="http://www.w3.org/1999/xlink" x="0px" y="0px"
	 width="81.274px" height="100px" viewBox="0 0 81.274 100" enable-background="new 0 0 81.274 100" xml:space="preserve">
<g>
	<path fill="#333333" d="M80.439,43.772L58.768,27.539c-0.902-0.67-2.174-0.514-2.878,0.368c-0.155,0.193-0.332,0.395-0.523,0.596
		c-1.209-0.815-2.337-1.833-3.234-2.646c-0.541-0.488-1.016-0.914-1.408-1.223c-1.635-1.28-4.338-2.778-8.284-3.137v-3.543
		c4.016-0.944,7.014-4.557,7.014-8.858C49.453,4.081,45.372,0,40.355,0c-5.016,0-9.097,4.081-9.097,9.096
		c0,1.152,0.933,2.084,2.085,2.084c1.151,0,2.084-0.932,2.084-2.084c0-2.717,2.21-4.928,4.928-4.928c2.717,0,4.93,2.21,4.93,4.928
		s-2.213,4.93-4.93,4.93c-1.152,0-2.084,0.932-2.084,2.084v5.479c-2.945,0.362-5.59,1.378-7.721,3.047
		c-0.389,0.307-0.861,0.729-1.398,1.215c-0.92,0.832-2.082,1.881-3.327,2.709c-0.204-0.197-0.424-0.383-0.601-0.595
		c-0.711-0.849-1.958-0.991-2.846-0.329L0.834,43.772c-0.867,0.651-1.091,1.856-0.517,2.774l9.566,15.281
		c0.535,0.854,1.6,1.201,2.532,0.835l5.481-2.166c-0.116,3.764-0.401,10.248-1.066,15.575c-0.996,7.971-4.087,19.773-4.118,19.892
		c-0.153,0.578-0.049,1.192,0.281,1.689c0.332,0.494,0.861,0.826,1.451,0.907C14.875,98.618,25.131,100,40.641,100
		c15.507,0,25.762-1.382,26.19-1.439c0.591-0.081,1.12-0.413,1.451-0.907c0.33-0.497,0.434-1.111,0.281-1.689
		c-0.03-0.118-3.122-11.921-4.119-19.892c-0.664-5.327-0.949-11.812-1.067-15.575l5.485,2.166c0.935,0.368,1.999,0.019,2.532-0.835
		l9.562-15.281C81.531,45.629,81.307,44.424,80.439,43.772z M31.949,28.943c0.454-0.411,0.849-0.771,1.175-1.028
		c1.976-1.547,4.504-2.33,7.517-2.33c3.012,0,5.538,0.783,7.51,2.33c0.332,0.259,0.729,0.623,1.187,1.034
		c0.674,0.61,1.456,1.307,2.323,1.988c-2.314,0.94-5.738,1.641-10.971,1.671c-4.586-0.026-8.262-0.603-11.042-1.693
		C30.506,30.239,31.279,29.548,31.949,28.943z M68.781,58.148l-6.798-2.683c-0.647-0.248-1.376-0.171-1.948,0.224
		c-0.572,0.396-0.91,1.049-0.901,1.743c0.006,0.441,0.15,10.93,1.174,19.156c0.768,6.141,2.663,14.195,3.634,18.111
		c-3.865,0.407-12.296,1.132-23.301,1.132c-10.991,0-19.435-0.725-23.306-1.132c0.971-3.918,2.866-11.971,3.631-18.111
		c1.028-8.225,1.169-18.715,1.175-19.156c0.008-0.696-0.33-1.348-0.901-1.743c-0.568-0.395-1.303-0.474-1.948-0.222l-6.794,2.681
		L4.869,45.961l18.556-13.899c3.503,3.057,9.011,4.602,16.737,4.712c0.053,0.004,0.105,0.006,0.16,0.006h0.721
		c0.053,0,0.106-0.002,0.157-0.006c7.781-0.104,13.12-1.637,16.558-4.781l18.648,13.969L68.781,58.148z"/>
</g>
</svg>
