<?xml version="1.0" encoding="utf-8"?>
<!-- Generator: Adobe Illustrator 16.0.5, SVG Export Plug-In . SVG Version: 6.00 Build 0)  -->
<!DOCTYPE svg PUBLIC "-//W3C//DTD SVG 1.1//EN" "http://www.w3.org/Graphics/SVG/1.1/DTD/svg11.dtd">
<svg version="1.1" id="Layer_1" xmlns="http://www.w3.org/2000/svg" xmlns:xlink="http://www.w3.org/1999/xlink" x="0px" y="0px"
	 width="100px" height="88.422px" viewBox="0 0 100 88.422" enable-background="new 0 0 100 88.422" xml:space="preserve">
<g>
	<path fill="#231F20" d="M27.078,47.804c-5.168,0-9.373-4.204-9.373-9.373s4.205-9.373,9.373-9.373c5.169,0,9.374,4.204,9.374,9.373
		S32.247,47.804,27.078,47.804z M27.078,33.224c-2.872,0-5.207,2.335-5.207,5.207s2.335,5.208,5.207,5.208s5.208-2.336,5.208-5.208
		S29.95,33.224,27.078,33.224z"/>
	<path fill="#231F20" d="M85.401,0h-21.23c-1.151,0-2.083,0.932-2.083,2.083v21.23c0,1.151,0.932,2.083,2.083,2.083h21.23
		c1.151,0,2.083-0.932,2.083-2.083V2.083C87.484,0.932,86.553,0,85.401,0z M83.318,10.311h-6.45V4.166h6.45V10.311z M72.702,4.166
		v6.145h-6.448V4.166H72.702z M66.254,14.477h6.448v6.753h-6.448V14.477z M76.868,21.23v-6.753h6.45v6.753H76.868z"/>
	<g>
		<path fill="#231F20" d="M99.966,83.854c-0.289-1.516-0.562-2.802-0.806-3.965c-0.773-3.668-1.241-5.881-1.241-10.226
			l-0.002-21.938c-0.214-6.659-5.785-6.932-9.115-7.093c-0.697-0.034-1.397-0.067-2.072-0.141c-4.811-0.522-8.93-1.533-14.219-3.484
			c-6.491-2.394-13.948-4.949-20.303-4.949c-1.349,0-2.628,0.114-3.804,0.342c-0.633,0.122-1.174,0.529-1.465,1.104
			c-0.355,0.706-0.691,1.437-1.007,2.185c-0.368-0.073-0.738-0.154-1.121-0.154c-2.005,0-3.83,1.021-4.882,2.728l-8.641,14.072
			L19.46,47.296c-0.724-0.306-1.473-0.458-2.242-0.458c-2.298,0-4.367,1.365-5.272,3.477c-1.234,2.911,0.118,6.279,3.015,7.521
			l17.622,7.497c0.528,0.227,1.084,0.334,1.629,0.334c1.412,0,2.774-0.718,3.552-1.985l3.706-6.035
			c-0.25,3.417-0.366,6.77-0.427,9.946H10.415v-47.92v-4.153H8.303c1.275-0.95,2.111-2.456,2.111-4.166
			c0-2.876-2.331-5.208-5.207-5.208C2.331,6.145,0,8.476,0,11.353c0,1.71,0.836,3.216,2.111,4.166H0v4.153v64.37v4.152h4.219h1.977
			h4.219v-4.152V71.758h30.571c-0.006,1.109-0.012,2.207-0.016,3.234l-0.002,0.856c-0.022,6.147-1.243,9.758-1.253,9.786
			c-0.265,0.751-0.078,1.585,0.479,2.152c0.558,0.565,1.39,0.769,2.145,0.515c4.807-1.601,14.313-2.72,23.124-2.72
			c1.271,0,2.504,0.024,3.673,0.073c3.914,0.167,6.953,0.72,10.171,1.306c3.94,0.719,8.013,1.461,13.761,1.461
			c3.196,0,5.017-0.515,6.091-1.719C99.811,85.971,100.105,85.013,99.966,83.854z M6.196,84.042H4.219v-64.37h1.977V84.042z
			 M5.208,13.436c-1.151,0-2.083-0.932-2.083-2.083S4.056,9.27,5.208,9.27s2.083,0.932,2.083,2.083S6.359,13.436,5.208,13.436z
			 M42.619,47.811L34.214,61.5l-17.613-7.496c-0.793-0.34-1.162-1.255-0.824-2.05c0.254-0.594,0.834-0.95,1.442-0.95
			c0.204,0,0.411,0.041,0.608,0.124l15.134,6.446l10.519-17.13c0.23-0.372,0.601-0.569,0.997-0.659
			C43.695,42.334,43.087,45.034,42.619,47.811z M93.067,84.256c-5.372,0-9.084-0.678-13.012-1.394
			c-3.216-0.586-6.542-1.191-10.744-1.369c-1.225-0.053-2.517-0.077-3.849-0.077c-6.45,0-14.819,0.623-20.958,1.989
			c0.323-1.865,0.616-4.412,0.629-7.54l0.002-0.858c0.038-11.178,0.096-27.902,5.062-38.671c0.635-0.075,1.308-0.112,2.01-0.112
			c5.667,0,12.707,2.421,18.862,4.693c5.556,2.048,10.104,3.161,15.207,3.716c0.757,0.084,1.542,0.122,2.323,0.161
			c4.104,0.199,5.071,0.504,5.152,2.998v21.871c0,4.778,0.558,7.425,1.331,11.086c0.211,1.003,0.443,2.1,0.673,3.259
			C95.356,84.117,94.561,84.256,93.067,84.256z"/>
	</g>
</g>
</svg>
