<?xml version="1.0" encoding="utf-8"?>
<!-- Generator: Adobe Illustrator 16.0.5, SVG Export Plug-In . SVG Version: 6.00 Build 0)  -->
<!DOCTYPE svg PUBLIC "-//W3C//DTD SVG 1.1//EN" "http://www.w3.org/Graphics/SVG/1.1/DTD/svg11.dtd">
<svg version="1.1" id="Layer_1" xmlns="http://www.w3.org/2000/svg" xmlns:xlink="http://www.w3.org/1999/xlink" x="0px" y="0px"
	 width="100px" height="100px" viewBox="0 0 100 100" enable-background="new 0 0 100 100" xml:space="preserve">
<g>
	<path d="M51.731,31.84c-0.073-0.61-0.421-1.151-0.946-1.471l-15.91-9.687c-0.789-0.48-1.801-0.359-2.454,0.294l-3.298,3.298
		l-4.599-4.6c-0.372-0.373-0.887-0.586-1.414-0.586h-9c-1.104,0-2,0.896-2,2s0.896,2,2,2h8.171l4.014,4.014l-3.278,3.278
		c-0.653,0.653-0.775,1.665-0.294,2.454l9.688,15.909c0.319,0.525,0.86,0.873,1.47,0.946s1.218-0.137,1.652-0.572L51.16,33.492
		C51.594,33.058,51.805,32.45,51.731,31.84z M34.503,44.492l-7.546-12.393l7.181-7.181l12.394,7.546L34.503,44.492z"/>
	<circle cx="48.319" cy="46.279" r="2.916"/>
	<circle cx="54.238" cy="52.197" r="2.916"/>
	<circle cx="60.156" cy="58.115" r="2.916"/>
	<circle cx="66.074" cy="64.033" r="2.916"/>
	<circle cx="71.992" cy="69.951" r="2.916"/>
	<circle cx="77.826" cy="75.785" r="2.916"/>
	<circle cx="54.92" cy="39.68" r="2.916"/>
	<circle cx="61.748" cy="44.519" r="2.916"/>
	<circle cx="68.576" cy="49.359" r="2.916"/>
	<path d="M73.718,56.576c1.314,0.934,3.135,0.623,4.064-0.691c0.932-1.314,0.623-3.133-0.691-4.065
		c-1.316-0.932-3.135-0.621-4.064,0.694C72.093,53.826,72.403,55.646,73.718,56.576z"/>
	<circle cx="82.232" cy="59.039" r="2.916"/>
	<circle cx="41.72" cy="52.878" r="2.917"/>
	<circle cx="46.56" cy="59.706" r="2.916"/>
	<circle cx="51.399" cy="66.535" r="2.917"/>
	<path d="M58.618,71.676c-0.93-1.314-2.752-1.623-4.064-0.691c-1.314,0.932-1.626,2.75-0.693,4.064
		c0.932,1.316,2.752,1.625,4.064,0.693C59.241,74.811,59.55,72.99,58.618,71.676z"/>
	<circle cx="61.08" cy="80.191" r="2.916"/>
</g>
</svg>
