<?xml version="1.0" encoding="utf-8"?>
<!-- Generator: Adobe Illustrator 16.0.5, SVG Export Plug-In . SVG Version: 6.00 Build 0)  -->
<!DOCTYPE svg PUBLIC "-//W3C//DTD SVG 1.1//EN" "http://www.w3.org/Graphics/SVG/1.1/DTD/svg11.dtd">
<svg version="1.1" id="Layer_1" xmlns="http://www.w3.org/2000/svg" xmlns:xlink="http://www.w3.org/1999/xlink" x="0px" y="0px"
	 width="100px" height="100px" viewBox="0 0 100 100" enable-background="new 0 0 100 100" xml:space="preserve">
<path d="M80.52,66.545h-3.562v4.204h-4v-4.204H28.043v4.204h-4v-4.204H20.48l-2-20.671h10.125l1,3.878h42l1-3.878h9.914
	L80.52,66.545z M28.5,42.261v-4.167c0-1.988,1.612-3.6,3.6-3.6h13.846c-0.747,0.97-1.196,2.182-1.196,3.501
	c0,1.694,0.737,3.213,1.903,4.265h7.693c1.166-1.052,1.903-2.571,1.903-4.265c0-1.319-0.449-2.531-1.196-3.501h13.886
	c1.988,0,3.6,1.612,3.6,3.6v4.167h4.98l2-16.671h-6.914v2.878h-44V25.59H21.48l2,16.671H28.5z M39.234,62.39h6.129v-1.476h-3.526
	l3.729-6.536v-0.145h-5.672v1.476h3.082l-3.742,6.536V62.39z M47.334,62.39h6.129v-1.476h-3.525l3.729-6.536v-0.145h-5.673v1.476
	h3.082l-3.742,6.536V62.39z M55.434,62.39h6.129v-1.476h-3.525l3.729-6.536v-0.145h-5.673v1.476h3.082l-3.742,6.536V62.39z"/>
</svg>
