<?xml version="1.0" encoding="utf-8"?>
<!-- Generator: Adobe Illustrator 16.0.5, SVG Export Plug-In . SVG Version: 6.00 Build 0)  -->
<!DOCTYPE svg PUBLIC "-//W3C//DTD SVG 1.1//EN" "http://www.w3.org/Graphics/SVG/1.1/DTD/svg11.dtd">
<svg version="1.1" id="Layer_1" xmlns="http://www.w3.org/2000/svg" xmlns:xlink="http://www.w3.org/1999/xlink" x="0px" y="0px"
	 width="97.836px" height="100px" viewBox="0 0 97.836 100" enable-background="new 0 0 97.836 100" xml:space="preserve">
<g>
	<path fill="#231F20" d="M35.699,38.337c-5.368,0-9.736-4.367-9.736-9.736s4.368-9.736,9.736-9.736c5.369,0,9.736,4.367,9.736,9.736
		S41.068,38.337,35.699,38.337z M35.699,23.191c-2.983,0-5.408,2.426-5.408,5.409s2.425,5.409,5.408,5.409s5.409-2.426,5.409-5.409
		S38.683,23.191,35.699,23.191z"/>
	<path fill="#231F20" d="M38.945,87.019c-1.196,0-2.164-0.968-2.164-2.164c0-2.386-1.941-4.327-4.327-4.327
		s-4.327,1.941-4.327,4.327c0,1.196-0.968,2.164-2.164,2.164c-1.195,0-2.163-0.968-2.163-2.164c0-3.579-2.912-6.491-6.491-6.491
		s-6.49,2.912-6.49,6.491c0,1.196-0.968,2.164-2.164,2.164c-1.195,0-2.163-0.968-2.163-2.164c0-5.965,4.853-10.818,10.817-10.818
		c3.726,0,7.018,1.894,8.963,4.767c1.572-1.605,3.764-2.603,6.183-2.603c2.827,0,5.342,1.362,6.922,3.465
		c1.086-0.817,2.437-1.302,3.896-1.302c1.195,0,2.163,0.968,2.163,2.164s-0.968,2.163-2.163,2.163c-1.194,0-2.164,0.971-2.164,2.164
		C41.108,86.051,40.141,87.019,38.945,87.019z"/>
	<path fill="#231F20" d="M8.654,95.673C3.882,95.673,0,91.791,0,87.019c0-1.196,0.968-2.164,2.164-2.164
		c1.195,0,2.163,0.968,2.163,2.164c0,2.385,1.941,4.327,4.327,4.327s4.327-1.942,4.327-4.327c0-1.196,0.968-2.164,2.164-2.164
		c1.195,0,2.163,0.968,2.163,2.164C17.309,91.791,13.428,95.673,8.654,95.673z"/>
	<path fill="#231F20" d="M51.927,100c-5.965,0-10.818-4.854-10.818-10.818c0-1.196,0.968-2.163,2.164-2.163
		c1.195,0,2.163,0.967,2.163,2.163c0,3.579,2.912,6.491,6.491,6.491s6.491-2.912,6.491-6.491V88.1c0-1.195,0.968-2.163,2.163-2.163
		c1.194,0,2.164-0.97,2.164-2.164c0-1.195,0.968-2.163,2.163-2.163c1.196,0,2.164,0.968,2.164,2.163
		c0,2.386,1.941,4.327,4.327,4.327s4.327-1.941,4.327-4.327c0-1.195,0.968-2.163,2.163-2.163c1.196,0,2.164,0.968,2.164,2.163
		c0,4.773-3.882,8.654-8.654,8.654c-2.827,0-5.342-1.362-6.922-3.465c-0.528,0.397-1.12,0.717-1.756,0.938
		C62.35,95.533,57.65,100,51.927,100z"/>
	<g>
		<path fill="#231F20" d="M95.877,24.273c3.083-3.085,2.46-8.699-1.395-12.553c2.312-2.312,2.312-6.056,0-8.367
			s-6.056-2.312-8.367,0C82.262-0.5,76.647-1.124,73.562,1.959c0,0,1.395,4.184,9.762,12.551
			C91.693,22.879,95.877,24.273,95.877,24.273z"/>
	</g>
	<circle fill="#231F20" cx="70.349" cy="10.305" r="2.163"/>
	<path fill="#231F20" d="M64.23,16.424c-0.848,0.848-2.215,0.848-3.062,0c-0.846-0.845-0.846-2.212,0-3.06
		c0.847-0.845,2.214-0.845,3.062,0C65.075,14.21,65.075,15.579,64.23,16.424z"/>
	<path fill="#231F20" d="M56.579,21.016c-0.845,0.845-2.214,0.845-3.06,0c-0.845-0.848-0.845-2.215,0-3.06
		c0.846-0.848,2.215-0.848,3.06,0C57.425,18.801,57.425,20.168,56.579,21.016z"/>
	<path fill="#231F20" d="M77.998,17.953c-0.846,0.848-2.215,0.848-3.06,0c-0.846-0.845-0.846-2.212,0-3.059
		c0.845-0.846,2.214-0.846,3.06,0C78.843,15.741,78.843,17.108,77.998,17.953z"/>
	<path fill="#231F20" d="M70.35,22.545c-0.846,0.845-2.215,0.845-3.06,0c-0.848-0.845-0.848-2.214,0-3.06
		c0.845-0.848,2.214-0.848,3.06,0C71.194,20.331,71.194,21.7,70.35,22.545z"/>
	<path fill="#231F20" d="M62.698,27.134c-0.845,0.846-2.212,0.846-3.06,0c-0.845-0.845-0.845-2.214,0-3.06
		c0.848-0.845,2.215-0.845,3.06,0C63.546,24.92,63.546,26.289,62.698,27.134z"/>
	<circle fill="#231F20" cx="55.049" cy="31.723" r="2.163"/>
	<path fill="#231F20" d="M84.119,24.074c-0.848,0.846-2.215,0.846-3.062,0c-0.846-0.845-0.846-2.214,0-3.059
		c0.847-0.848,2.214-0.848,3.06,0C84.964,21.86,84.964,23.229,84.119,24.074z"/>
	<path fill="#231F20" d="M70.35,31.724c-0.846,0.845-2.215,0.845-3.06,0c-0.848-0.846-0.848-2.215,0-3.06
		c0.845-0.846,2.214-0.846,3.06,0C71.194,29.509,71.194,30.878,70.35,31.724z"/>
	<circle fill="#231F20" cx="62.7" cy="36.313" r="2.164"/>
	<circle fill="#231F20" cx="77.998" cy="30.194" r="2.163"/>
	<circle fill="#231F20" cx="73.409" cy="37.843" r="2.164"/>
	<path fill="#231F20" d="M70.35,47.022c-0.846,0.846-2.215,0.846-3.06,0c-0.848-0.845-0.848-2.214,0-3.059
		c0.845-0.846,2.214-0.846,3.06,0C71.194,44.809,71.194,46.178,70.35,47.022z"/>
	<circle fill="#231F20" cx="79.528" cy="43.963" r="2.163"/>
	<path fill="#231F20" d="M76.468,53.142c-0.845,0.848-2.214,0.848-3.06,0c-0.845-0.845-0.845-2.214,0-3.06
		c0.846-0.845,2.215-0.845,3.06,0C77.313,50.928,77.313,52.297,76.468,53.142z"/>
	<path fill="#231F20" d="M71.879,60.793c-0.845,0.845-2.215,0.845-3.06,0c-0.845-0.848-0.845-2.215,0-3.06
		c0.845-0.848,2.215-0.848,3.06,0C72.724,58.578,72.724,59.945,71.879,60.793z"/>
	<path fill="#231F20" d="M90.238,30.193c-0.846,0.846-2.215,0.846-3.06,0c-0.848-0.845-0.848-2.214,0-3.06
		c0.845-0.845,2.214-0.845,3.06,0C91.083,27.979,91.083,29.349,90.238,30.193z"/>
	<circle fill="#231F20" cx="84.118" cy="36.313" r="2.164"/>
	<path fill="#231F20" d="M60.467,71.252l-4.329-21.643c-0.514-2.549-2.628-4.429-5.153-4.723c-0.072-0.017-0.129-0.062-0.203-0.071
		L24.397,41.01l-8.238-14.833L27.128,9.724c1.819-2.734,1.077-6.434-1.652-8.253c-0.985-0.653-2.124-0.997-3.299-0.997
		c-1.994,0-3.848,0.991-4.952,2.651L3.695,23.42l-1.464,2.195l1.282,2.307l10.871,19.563c0.004,0.011,0.002,0.023,0.009,0.034
		c0.116,0.232,0.276,0.526,0.469,0.877c1.38,2.517,4.61,8.411,4.61,18.067v10.545c0,1.196,0.968,2.164,2.163,2.164
		c1.196,0,2.164-0.968,2.164-2.164V66.464c0-8.389-2.181-14.201-3.875-17.7c-0.089-0.189-0.19-0.376-0.281-0.566
		c-0.192-0.382-0.372-0.737-0.541-1.054c-0.171-0.328-0.327-0.661-0.507-0.987L7.296,25.82L20.827,5.523
		c0.312-0.469,0.826-0.723,1.35-0.723c0.309,0,0.624,0.089,0.9,0.272c0.746,0.497,0.946,1.505,0.45,2.25L11.095,25.972l9.901,17.825
		l0.097,0.025c0.285,0.678,0.875,1.21,1.654,1.322l26.906,3.882l1.067,0.188v0.013c0.576,0.154,1.048,0.606,1.175,1.232
		l4.327,21.636c0.118,0.596-0.104,1.206-0.577,1.587c-0.294,0.234-0.653,0.354-1.015,0.354c-0.224,0-0.447-0.046-0.659-0.14
		l-19.473-8.654c-0.819-0.363-1.187-1.322-0.823-2.143c0.268-0.606,0.866-0.963,1.487-0.963c0.22,0,0.443,0.044,0.655,0.14
		l16.607,7.382L49.848,56.77c0-0.002,0.002-0.004,0.002-0.008c0-1.218-0.982-2.198-2.195-2.198c-1.204,0-2.172,0.964-2.191,2.164
		h-0.035l1.115,5.58l-8.967-3.985c-0.763-0.34-1.576-0.513-2.413-0.513c-2.354,0-4.49,1.388-5.443,3.537
		c-0.645,1.451-0.685,3.065-0.116,4.547c0.571,1.487,1.687,2.66,3.143,3.305l14.928,6.634C47.652,75.957,47.6,76.069,47.6,76.2
		v10.818c0,1.195,0.968,2.163,2.163,2.163c1.196,0,2.164-0.968,2.164-2.163v-9.295l0.287,0.127c0.777,0.342,1.587,0.513,2.417,0.513
		c1.344,0,2.665-0.462,3.715-1.301C60.091,75.659,60.9,73.437,60.467,71.252z"/>
</g>
</svg>
