<?xml version="1.0" encoding="utf-8"?>
<!-- Generator: Adobe Illustrator 16.0.5, SVG Export Plug-In . SVG Version: 6.00 Build 0)  -->
<!DOCTYPE svg PUBLIC "-//W3C//DTD SVG 1.1//EN" "http://www.w3.org/Graphics/SVG/1.1/DTD/svg11.dtd">
<svg version="1.1" id="Layer_1" xmlns="http://www.w3.org/2000/svg" xmlns:xlink="http://www.w3.org/1999/xlink" x="0px" y="0px"
	 width="73.094px" height="100px" viewBox="0 0 73.094 100" enable-background="new 0 0 73.094 100" xml:space="preserve">
<g>
	<path fill="#221F1F" d="M68.525,0H4.568C2.046,0,0,2.046,0,4.568v35.532c0,2.522,2.046,4.568,4.568,4.568H28.53
		c1.688,3.37,5.139,5.71,9.159,5.71c4.02,0,7.47-2.34,9.158-5.71h21.678c2.523,0,4.568-2.046,4.568-4.568V4.568
		C73.094,2.046,71.049,0,68.525,0z M37.689,45.811c-2.758,0-5.064-1.963-5.595-4.563v-0.002c-0.076-0.371-0.116-0.752-0.116-1.145
		c0-0.317,0.045-0.623,0.094-0.926c0.049-0.261,0.113-0.516,0.189-0.766c0.728-2.319,2.871-4.02,5.428-4.02
		c2.556,0,4.699,1.7,5.427,4.02c0.076,0.25,0.141,0.505,0.189,0.766c0.049,0.303,0.094,0.608,0.094,0.926
		c0,0.393-0.04,0.773-0.116,1.145v0.002C42.753,43.848,40.446,45.811,37.689,45.811z M68.525,38.396H47.796
		c-0.818-4.856-5.023-8.575-10.106-8.575c-5.084,0-9.289,3.719-10.107,8.575H4.568V4.568h63.957V38.396z"/>
	<circle fill="#FFFFFF" cx="65.791" cy="41.548" r="1.142"/>
	<circle fill="#FFFFFF" cx="61.557" cy="41.548" r="1.142"/>
	<path fill="#221F1F" d="M71.642,91.885L60.221,54.506c-0.812-2.659-3.228-4.445-6.007-4.445c-0.571,0-9.255,1.461-16.529,1.461
		h-0.026c-7.274,0-15.958-1.461-16.529-1.461c-2.779,0-5.195,1.786-6.008,4.445L3.7,91.885c-0.49,1.604-0.325,3.306,0.465,4.789
		c0.791,1.483,2.112,2.567,3.718,3.054C8.454,99.906,9.079,100,9.708,100c2.781,0,5.195-1.787,6.007-4.448l5.963-19.511l0.339,3.486
		l0.836,8.851c0.057,0.596,0.344,1.146,0.801,1.533c0.533,0.448,3.679,2.658,13.618,2.719c0.134,0.002,0.255,0.007,0.391,0.007
		c0.002,0,0.007,0,0.009,0c0.003,0,0.007,0,0.009,0c0.137,0,0.257-0.005,0.391-0.007c9.94-0.061,13.085-2.271,13.618-2.719
		c0.457-0.387,0.745-0.938,0.801-1.533l0.837-8.851l0.339-3.486l5.963,19.511c0.812,2.661,3.225,4.448,6.007,4.448
		c0.629,0,1.254-0.094,1.824-0.272c1.606-0.486,2.927-1.57,3.719-3.054C71.968,95.19,72.133,93.488,71.642,91.885z M66.135,95.355
		c-0.166,0.052-0.335,0.076-0.5,0.076c-0.734,0-1.412-0.476-1.638-1.214l-9.255-30.62c-0.141-0.723-0.603-1.32-1.27-1.623
		c-0.265-0.135-0.754-0.219-0.758-0.219c-1.227-0.156-2.369,0.801-2.487,2.059l-1.426,15.055l-0.756,7.787
		c-1.22,0.509-4.158,1.365-9.96,1.405c-0.143,0-0.268,0.007-0.415,0.007c-0.146,0-0.271-0.007-0.415-0.007
		c-5.802-0.04-8.739-0.896-9.959-1.405l-0.757-7.787l-1.425-15.055c-0.118-1.258-1.261-2.215-2.487-2.059
		c-0.005,0-0.009,0.002-0.014,0.002c-0.009,0.002-0.625,0.156-0.745,0.217c-0.667,0.303-1.129,0.9-1.27,1.623l-9.255,30.62
		c-0.225,0.738-0.903,1.214-1.637,1.214c-0.165,0-0.335-0.024-0.5-0.076c-0.905-0.274-1.414-1.233-1.138-2.137L19.491,55.84
		c0.226-0.738,0.906-1.211,1.638-1.211c0.165,0,2.795,0.419,4.735,0.655c2.887,0.368,7.254,0.806,11.794,0.806h0.026l0,0
		c0.252,0,1.575-0.018,1.575-0.018c3.959-0.085,7.669-0.462,10.219-0.788c1.94-0.236,4.57-0.655,4.735-0.655
		c0.731,0,1.412,0.473,1.637,1.211l11.421,37.379C67.549,94.122,67.04,95.081,66.135,95.355z"/>
</g>
</svg>
